<svg xmlns="http://www.w3.org/2000/svg" width="512" height="512" viewBox="78 40 360 380">

  <!-- Stem -->
  <path d="M253 151 C255 132 260 115 270 102 C276 95 281 91 285 89"
    fill="none" stroke="#6b4a30" stroke-width="10" stroke-linecap="round"/>
  <path d="M259 140 C262 128 267 116 274 106" fill="none" stroke="#5a3a24" stroke-width="3" stroke-linecap="round" opacity="0.5"/>

  <!-- Fruit body -->
  <path
    d="M254 145 C228 121 192 112 158 123 C114 137 85 174 84 222 C83 283 108 352 163 390 C195 412 228 414 255 393 C282 415 317 412 349 388 C402 350 429 281 426 220 C424 171 397 133 353 120 C319 110 285 118 254 145 Z"
    fill="#d52b50"/>

  <!-- Flat color facets; all shapes stay inside the fruit silhouette. -->
  <path d="M310 175 C368 190 412 235 415 288 C417 322 400 355 365 378 C386 350 393 312 380 275 C367 238 342 205 310 175 Z" fill="#a91f3f" opacity="0.3"/>
  <path d="M345 345 C370 360 386 372 396 383 C376 396 350 396 328 384 C335 372 340 359 345 345 Z" fill="#8f1735" opacity="0.28"/>

  <!-- Flat highlight facets, matte rather than glossy. -->
  <path d="M133 168 C152 147 178 137 199 141 C173 155 154 180 148 212 C142 243 147 274 161 300 C135 276 118 210 133 168 Z" fill="#f56f88" opacity="0.6"/>
  <path d="M152 175 C163 162 178 152 193 149 C182 160 174 173 169 188 C162 184 156 180 152 175 Z" fill="#ffadba" opacity="0.65"/>

  <!-- Subtle mid patch for a bit of variation. -->
  <path d="M205 340 C233 356 265 358 293 347 C279 365 251 376 223 371 C214 362 208 351 205 340 Z" fill="#b92445" opacity="0.28"/>

  <!-- Top cleft -->
  <path d="M221 145 C230 159 242 167 255 166 C268 165 279 156 286 143"
    fill="none" stroke="#7e0f33" stroke-width="10" stroke-linecap="round"/>

  <!-- Leaf, flat two-tone -->
  <path d="M285 89 C298 62 325 45 354 50 C350 77 324 99 285 89 Z" fill="#3d7a45"/>
  <path d="M285 89 C293 71 308 57 326 49 C321 68 308 84 289 92 Z" fill="#5c9a5f"/>
  <path d="M293 84 C309 73 325 62 339 54" fill="none" stroke="#234d2b" stroke-width="4" stroke-linecap="round" opacity="0.55"/>

  <!-- Git graph -->
  <g fill="none" stroke="#fff5f7" stroke-width="11" stroke-linecap="round" stroke-linejoin="round" opacity="0.78">
    <path d="M159 263 L256 205 L353 263"/>
    <path d="M256 205 V326"/>
  </g>
  <g>
    <g fill="#fff5f7">
      <circle cx="159" cy="263" r="14"/>
      <circle cx="256" cy="205" r="15"/>
      <circle cx="353" cy="263" r="14"/>
      <circle cx="256" cy="326" r="14"/>
    </g>
    <g fill="#c7194d">
      <circle cx="159" cy="263" r="5.5"/>
      <circle cx="256" cy="205" r="6"/>
      <circle cx="353" cy="263" r="5.5"/>
      <circle cx="256" cy="326" r="5.5"/>
    </g>
  </g>
</svg>
